<svg width="0" height="0" class="hidden">
  <symbol fill="none" xmlns="http://www.w3.org/2000/svg" viewBox="0 0 18 20" id="15">
    <path d="M5.8425 16V10.88L6.4025 11.44H4.7225V10.4H7.1385V16H5.8425Z" fill="currentColor"></path>
    <path d="M10.0153 16.096C9.62598 16.096 9.23932 16.0453 8.85532 15.944C8.47665 15.8373 8.15132 15.688 7.87932 15.496L8.39132 14.504C8.60465 14.6587 8.84998 14.7813 9.12732 14.872C9.40998 14.9627 9.69532 15.008 9.98332 15.008C10.3087 15.008 10.5646 14.944 10.7513 14.816C10.938 14.688 11.0313 14.5093 11.0313 14.28C11.0313 14.136 10.994 14.008 10.9193 13.896C10.8446 13.784 10.7113 13.6987 10.5193 13.64C10.3327 13.5813 10.0686 13.552 9.72732 13.552H8.29532L8.58332 10.4H11.9993V11.44H9.04732L9.71932 10.848L9.51932 13.096L8.84732 12.504H10.0313C10.586 12.504 11.0313 12.5813 11.3673 12.736C11.7086 12.8853 11.9566 13.0907 12.1113 13.352C12.266 13.6133 12.3433 13.9093 12.3433 14.24C12.3433 14.5707 12.2606 14.8773 12.0953 15.16C11.93 15.4373 11.674 15.664 11.3273 15.84C10.986 16.0107 10.5486 16.096 10.0153 16.096Z" fill="currentColor"></path>
    <path fill-rule="evenodd" clip-rule="evenodd" d="M0 3.5C0 2.67157 0.671573 2 1.5 2H16.5C17.3284 2 18 2.67157 18 3.5V18.5C18 19.3284 17.3284 20 16.5 20H1.5C0.671573 20 0 19.3284 0 18.5V3.5ZM16.5 3.5H1.5V18.5H16.5V3.5Z" fill="currentColor"></path>
    <path fill-rule="evenodd" clip-rule="evenodd" d="M13.5 0.5C13.9142 0.5 14.25 0.835786 14.25 1.25V4.25C14.25 4.66421 13.9142 5 13.5 5C13.0858 5 12.75 4.66421 12.75 4.25V1.25C12.75 0.835786 13.0858 0.5 13.5 0.5Z" fill="currentColor"></path>
    <path fill-rule="evenodd" clip-rule="evenodd" d="M4.5 0.5C4.91421 0.5 5.25 0.835786 5.25 1.25V4.25C5.25 4.66421 4.91421 5 4.5 5C4.08579 5 3.75 4.66421 3.75 4.25V1.25C3.75 0.835786 4.08579 0.5 4.5 0.5Z" fill="currentColor"></path>
    <path fill-rule="evenodd" clip-rule="evenodd" d="M0 7.25C0 6.83579 0.335786 6.5 0.75 6.5H17.25C17.6642 6.5 18 6.83579 18 7.25C18 7.66421 17.6642 8 17.25 8H0.75C0.335786 8 0 7.66421 0 7.25Z" fill="currentColor"></path>
  </symbol>
  <symbol fill="none" xmlns="http://www.w3.org/2000/svg" viewBox="0 0 18 20" id="25">
    <path d="M3.93075 16V15.16L6.09075 13.12C6.26141 12.9653 6.38675 12.8267 6.46675 12.704C6.54675 12.5813 6.60008 12.4693 6.62675 12.368C6.65875 12.2667 6.67475 12.1733 6.67475 12.088C6.67475 11.864 6.59741 11.6933 6.44275 11.576C6.29341 11.4533 6.07208 11.392 5.77875 11.392C5.54408 11.392 5.32541 11.4373 5.12275 11.528C4.92541 11.6187 4.75741 11.76 4.61875 11.952L3.67475 11.344C3.88808 11.024 4.18675 10.7707 4.57075 10.584C4.95475 10.3973 5.39742 10.304 5.89875 10.304C6.31475 10.304 6.67741 10.3733 6.98675 10.512C7.30141 10.6453 7.54408 10.8347 7.71475 11.08C7.89075 11.3253 7.97875 11.6187 7.97875 11.96C7.97875 12.1413 7.95475 12.3227 7.90675 12.504C7.86408 12.68 7.77342 12.8667 7.63475 13.064C7.50142 13.2613 7.30408 13.4827 7.04275 13.728L5.25075 15.416L5.00275 14.944H8.16275V16H3.93075Z" fill="currentColor"></path>
    <path d="M10.6015 16.096C10.2122 16.096 9.8255 16.0453 9.4415 15.944C9.06283 15.8373 8.7375 15.688 8.4655 15.496L8.9775 14.504C9.19083 14.6587 9.43616 14.7813 9.7135 14.872C9.99616 14.9627 10.2815 15.008 10.5695 15.008C10.8948 15.008 11.1508 14.944 11.3375 14.816C11.5242 14.688 11.6175 14.5093 11.6175 14.28C11.6175 14.136 11.5802 14.008 11.5055 13.896C11.4308 13.784 11.2975 13.6987 11.1055 13.64C10.9188 13.5813 10.6548 13.552 10.3135 13.552H8.8815L9.1695 10.4H12.5855V11.44H9.6335L10.3055 10.848L10.1055 13.096L9.4335 12.504H10.6175C11.1722 12.504 11.6175 12.5813 11.9535 12.736C12.2948 12.8853 12.5428 13.0907 12.6975 13.352C12.8522 13.6133 12.9295 13.9093 12.9295 14.24C12.9295 14.5707 12.8468 14.8773 12.6815 15.16C12.5162 15.4373 12.2602 15.664 11.9135 15.84C11.5722 16.0107 11.1348 16.096 10.6015 16.096Z" fill="currentColor"></path>
    <path fill-rule="evenodd" clip-rule="evenodd" d="M0 3.5C0 2.67157 0.671573 2 1.5 2H16.5C17.3284 2 18 2.67157 18 3.5V18.5C18 19.3284 17.3284 20 16.5 20H1.5C0.671573 20 0 19.3284 0 18.5V3.5ZM16.5 3.5H1.5V18.5H16.5V3.5Z" fill="currentColor"></path>
    <path fill-rule="evenodd" clip-rule="evenodd" d="M13.5 0.5C13.9142 0.5 14.25 0.835786 14.25 1.25V4.25C14.25 4.66421 13.9142 5 13.5 5C13.0858 5 12.75 4.66421 12.75 4.25V1.25C12.75 0.835786 13.0858 0.5 13.5 0.5Z" fill="currentColor"></path>
    <path fill-rule="evenodd" clip-rule="evenodd" d="M4.5 0.5C4.91421 0.5 5.25 0.835786 5.25 1.25V4.25C5.25 4.66421 4.91421 5 4.5 5C4.08579 5 3.75 4.66421 3.75 4.25V1.25C3.75 0.835786 4.08579 0.5 4.5 0.5Z" fill="currentColor"></path>
    <path fill-rule="evenodd" clip-rule="evenodd" d="M0 7.25C0 6.83579 0.335786 6.5 0.75 6.5H17.25C17.6642 6.5 18 6.83579 18 7.25C18 7.66421 17.6642 8 17.25 8H0.75C0.335786 8 0 7.66421 0 7.25Z" fill="currentColor"></path>
  </symbol>
  <symbol fill="none" xmlns="http://www.w3.org/2000/svg" viewBox="0 0 19 20" id="60">
    <path d="M6.73997 16.096C6.22797 16.096 5.78264 15.9894 5.40397 15.776C5.03064 15.5627 4.74264 15.2507 4.53997 14.84C4.33731 14.4294 4.23597 13.9227 4.23597 13.32C4.23597 12.6747 4.35597 12.128 4.59597 11.68C4.84131 11.232 5.17731 10.8907 5.60397 10.656C6.03597 10.4214 6.53197 10.304 7.09197 10.304C7.39064 10.304 7.67597 10.336 7.94797 10.4C8.21997 10.464 8.45464 10.56 8.65197 10.688L8.17197 11.64C8.01731 11.5334 7.85197 11.4614 7.67597 11.424C7.49997 11.3814 7.31597 11.36 7.12397 11.36C6.63864 11.36 6.25464 11.5067 5.97197 11.8C5.68931 12.0934 5.54797 12.528 5.54797 13.104C5.54797 13.2 5.54797 13.3067 5.54797 13.424C5.55331 13.5414 5.56931 13.6587 5.59597 13.776L5.23597 13.44C5.33731 13.232 5.46797 13.0587 5.62797 12.92C5.78797 12.776 5.97731 12.6694 6.19597 12.6C6.41997 12.5254 6.66531 12.488 6.93197 12.488C7.29464 12.488 7.61997 12.56 7.90797 12.704C8.19597 12.848 8.42531 13.0507 8.59597 13.312C8.77197 13.5734 8.85997 13.88 8.85997 14.232C8.85997 14.6107 8.76398 14.9414 8.57197 15.224C8.38531 15.5014 8.13197 15.7174 7.81197 15.872C7.49731 16.0214 7.13997 16.096 6.73997 16.096ZM6.66797 15.128C6.84931 15.128 7.00931 15.096 7.14797 15.032C7.29197 14.9627 7.40397 14.864 7.48397 14.736C7.56397 14.608 7.60397 14.4614 7.60397 14.296C7.60397 14.04 7.51597 13.8374 7.33997 13.688C7.16931 13.5334 6.93997 13.456 6.65197 13.456C6.45997 13.456 6.29197 13.4934 6.14797 13.568C6.00397 13.6374 5.88931 13.736 5.80397 13.864C5.72397 13.9867 5.68397 14.1307 5.68397 14.296C5.68397 14.456 5.72397 14.6 5.80397 14.728C5.88397 14.8507 5.99597 14.9494 6.13997 15.024C6.28397 15.0934 6.45997 15.128 6.66797 15.128Z" fill="currentColor"></path>
    <path d="M11.7297 16.096C11.2711 16.096 10.8604 15.984 10.4977 15.76C10.1351 15.5307 9.84972 15.2 9.64172 14.768C9.43372 14.336 9.32972 13.8134 9.32972 13.2C9.32972 12.5867 9.43372 12.064 9.64172 11.632C9.84972 11.2 10.1351 10.872 10.4977 10.648C10.8604 10.4187 11.2711 10.304 11.7297 10.304C12.1937 10.304 12.6044 10.4187 12.9617 10.648C13.3244 10.872 13.6097 11.2 13.8177 11.632C14.0257 12.064 14.1297 12.5867 14.1297 13.2C14.1297 13.8134 14.0257 14.336 13.8177 14.768C13.6097 15.2 13.3244 15.5307 12.9617 15.76C12.6044 15.984 12.1937 16.096 11.7297 16.096ZM11.7297 15C11.9484 15 12.1377 14.9387 12.2977 14.816C12.4631 14.6934 12.5911 14.4987 12.6817 14.232C12.7777 13.9654 12.8257 13.6214 12.8257 13.2C12.8257 12.7787 12.7777 12.4347 12.6817 12.168C12.5911 11.9014 12.4631 11.7067 12.2977 11.584C12.1377 11.4614 11.9484 11.4 11.7297 11.4C11.5164 11.4 11.3271 11.4614 11.1617 11.584C11.0017 11.7067 10.8737 11.9014 10.7777 12.168C10.6871 12.4347 10.6417 12.7787 10.6417 13.2C10.6417 13.6214 10.6871 13.9654 10.7777 14.232C10.8737 14.4987 11.0017 14.6934 11.1617 14.816C11.3271 14.9387 11.5164 15 11.7297 15Z" fill="currentColor"></path>
    <path fill-rule="evenodd" clip-rule="evenodd" d="M0.257324 3.5C0.257324 2.67157 0.928897 2 1.75732 2H16.7573C17.5858 2 18.2573 2.67157 18.2573 3.5V18.5C18.2573 19.3284 17.5858 20 16.7573 20H1.75732C0.928897 20 0.257324 19.3284 0.257324 18.5V3.5ZM16.7573 3.5H1.75732V18.5H16.7573V3.5Z" fill="currentColor"></path>
    <path fill-rule="evenodd" clip-rule="evenodd" d="M13.7573 0.5C14.1715 0.5 14.5073 0.835786 14.5073 1.25V4.25C14.5073 4.66421 14.1715 5 13.7573 5C13.3431 5 13.0073 4.66421 13.0073 4.25V1.25C13.0073 0.835786 13.3431 0.5 13.7573 0.5Z" fill="currentColor"></path>
    <path fill-rule="evenodd" clip-rule="evenodd" d="M4.75732 0.5C5.17154 0.5 5.50732 0.835786 5.50732 1.25V4.25C5.50732 4.66421 5.17154 5 4.75732 5C4.34311 5 4.00732 4.66421 4.00732 4.25V1.25C4.00732 0.835786 4.34311 0.5 4.75732 0.5Z" fill="currentColor"></path>
    <path fill-rule="evenodd" clip-rule="evenodd" d="M0.257324 7.25C0.257324 6.83579 0.593111 6.5 1.00732 6.5H17.5073C17.9215 6.5 18.2573 6.83579 18.2573 7.25C18.2573 7.66421 17.9215 8 17.5073 8H1.00732C0.593111 8 0.257324 7.66421 0.257324 7.25Z" fill="currentColor"></path>
  </symbol>
  <symbol fill="none" xmlns="http://www.w3.org/2000/svg" viewBox="0 0 18 20" id="70">
    <path fill-rule="evenodd" clip-rule="evenodd" d="M0 3.5C0 2.67157 0.671573 2 1.5 2H16.5C17.3284 2 18 2.67157 18 3.5V18.5C18 19.3284 17.3284 20 16.5 20H1.5C0.671573 20 0 19.3284 0 18.5V3.5ZM16.5 3.5H1.5V18.5H16.5V3.5Z" fill="currentColor"></path>
    <path fill-rule="evenodd" clip-rule="evenodd" d="M13.5 0.5C13.9142 0.5 14.25 0.835786 14.25 1.25V4.25C14.25 4.66421 13.9142 5 13.5 5C13.0858 5 12.75 4.66421 12.75 4.25V1.25C12.75 0.835786 13.0858 0.5 13.5 0.5Z" fill="currentColor"></path>
    <path fill-rule="evenodd" clip-rule="evenodd" d="M4.5 0.5C4.91421 0.5 5.25 0.835786 5.25 1.25V4.25C5.25 4.66421 4.91421 5 4.5 5C4.08579 5 3.75 4.66421 3.75 4.25V1.25C3.75 0.835786 4.08579 0.5 4.5 0.5Z" fill="currentColor"></path>
    <path fill-rule="evenodd" clip-rule="evenodd" d="M0 7.25C0 6.83579 0.335786 6.5 0.75 6.5H17.25C17.6642 6.5 18 6.83579 18 7.25C18 7.66421 17.6642 8 17.25 8H0.75C0.335786 8 0 7.66421 0 7.25Z" fill="currentColor"></path>
    <path d="M4.87475 16L7.13075 10.896L7.46675 11.456H4.45075L5.02675 10.848V12.368H3.87475V10.4H8.36275V11.24L6.28275 16H4.87475Z" fill="currentColor"></path>
    <path d="M11.1834 16.096C10.7248 16.096 10.3141 15.984 9.95144 15.76C9.58877 15.5307 9.30344 15.2 9.09544 14.768C8.88744 14.336 8.78344 13.8133 8.78344 13.2C8.78344 12.5867 8.88744 12.064 9.09544 11.632C9.30344 11.2 9.58877 10.872 9.95144 10.648C10.3141 10.4187 10.7248 10.304 11.1834 10.304C11.6474 10.304 12.0581 10.4187 12.4154 10.648C12.7781 10.872 13.0634 11.2 13.2714 11.632C13.4794 12.064 13.5834 12.5867 13.5834 13.2C13.5834 13.8133 13.4794 14.336 13.2714 14.768C13.0634 15.2 12.7781 15.5307 12.4154 15.76C12.0581 15.984 11.6474 16.096 11.1834 16.096ZM11.1834 15C11.4021 15 11.5914 14.9387 11.7514 14.816C11.9168 14.6933 12.0448 14.4987 12.1354 14.232C12.2314 13.9653 12.2794 13.6213 12.2794 13.2C12.2794 12.7787 12.2314 12.4347 12.1354 12.168C12.0448 11.9013 11.9168 11.7067 11.7514 11.584C11.5914 11.4613 11.4021 11.4 11.1834 11.4C10.9701 11.4 10.7808 11.4613 10.6154 11.584C10.4554 11.7067 10.3274 11.9013 10.2314 12.168C10.1408 12.4347 10.0954 12.7787 10.0954 13.2C10.0954 13.6213 10.1408 13.9653 10.2314 14.232C10.3274 14.4987 10.4554 14.6933 10.6154 14.816C10.7808 14.9387 10.9701 15 11.1834 15Z" fill="currentColor"></path>
  </symbol>
  <symbol fill="none" xmlns="http://www.w3.org/2000/svg" viewBox="0 0 32 32" id="airplane">
    <path fill-rule="evenodd" clip-rule="evenodd" d="M22.7306 6.43765C22.7136 6.45894 22.6955 6.47969 22.6764 6.49984L18.7139 10.6873C18.44 10.9768 18.0204 11.076 17.6458 10.9398L7.24435 7.15745L5.55721 8.84459L13.5423 14.168C13.7915 14.3341 13.9532 14.6033 13.9827 14.9015C14.0122 15.1996 13.9065 15.4953 13.6947 15.7071L10.6947 18.7071C10.5071 18.8947 10.2528 19 9.98757 19H7.40178L5.83423 20.5676L9.53219 21.815C9.82758 21.9146 10.0596 22.1463 10.1597 22.4415L11.4182 26.1552L12.9876 24.5858V22C12.9876 21.7183 13.1064 21.4496 13.3149 21.2601L16.3399 18.5101C16.554 18.3154 16.8419 18.2231 17.1292 18.2568C17.4166 18.2906 17.6752 18.4472 17.8384 18.6861L23.1333 26.4401L24.8301 24.7432L21.0478 14.3418C20.9112 13.9662 21.0114 13.5454 21.3025 13.2716L25.4577 9.36366C25.801 8.99356 25.9928 8.50667 25.9928 8.00002C25.9928 7.4682 25.7815 6.95817 25.4055 6.58212C25.0294 6.20607 24.5194 5.99481 23.9876 5.99481C23.5282 5.99481 23.0852 6.1524 22.7306 6.43765ZM26.9664 10.6774C27.6255 9.9441 27.9928 8.99099 27.9928 8.00002C27.9928 6.93777 27.5708 5.91903 26.8197 5.16791C26.0686 4.41679 25.0498 3.99481 23.9876 3.99481C22.9253 3.99481 21.9066 4.41679 21.1555 5.16791C21.0996 5.22372 21.0517 5.28461 21.0118 5.34914L17.7124 8.83589L7.32931 5.06022C6.96418 4.92745 6.55519 5.01818 6.28046 5.29291L3.28046 8.29291C3.06862 8.50475 2.96291 8.80042 2.99244 9.09855C3.02196 9.39669 3.18359 9.66588 3.43287 9.83207L11.4179 15.1554L9.57336 17H6.98757C6.72235 17 6.468 17.1054 6.28046 17.2929L3.28046 20.2929C3.03585 20.5375 2.93503 20.8912 3.01391 21.228C3.09279 21.5649 3.34015 21.837 3.66794 21.9476L8.42424 23.552L10.0405 28.321C10.1514 28.6484 10.4236 28.8953 10.7603 28.9738C11.0969 29.0524 11.4502 28.9516 11.6947 28.7071L14.6947 25.7071C14.8822 25.5196 14.9876 25.2652 14.9876 25V22.4424L16.8348 20.763L22.1617 28.5639C22.3296 28.8097 22.5982 28.968 22.8946 28.9957C23.1909 29.0234 23.4842 28.9176 23.6947 28.7071L26.6947 25.7071C26.9694 25.4324 27.0601 25.0234 26.9274 24.6583L23.1524 14.2772L26.7359 10.9071C26.7649 10.8839 26.7929 10.8589 26.8197 10.8321C26.8202 10.8316 26.8208 10.831 26.8213 10.8305L26.8947 10.7571C26.9203 10.7315 26.9442 10.7049 26.9664 10.6774Z" fill="currentColor"></path>
  </symbol>
  <symbol fill="none" xmlns="http://www.w3.org/2000/svg" viewBox="0 0 12 12" id="btn">
    <path fill-rule="evenodd" clip-rule="evenodd" d="M11.7071 0.292893C12.0976 0.683417 12.0976 1.31658 11.7071 1.70711L1.70711 11.7071C1.31658 12.0976 0.683417 12.0976 0.292893 11.7071C-0.0976311 11.3166 -0.0976311 10.6834 0.292893 10.2929L10.2929 0.292893C10.6834 -0.0976311 11.3166 -0.0976311 11.7071 0.292893Z" fill="currentColor"></path>
    <path fill-rule="evenodd" clip-rule="evenodd" d="M8.9407e-08 1C8.9407e-08 0.447715 0.447715 8.9407e-08 1 8.9407e-08H11C11.5523 8.9407e-08 12 0.447715 12 1V11C12 11.5523 11.5523 12 11 12C10.4477 12 10 11.5523 10 11V2H1C0.447715 2 8.9407e-08 1.55228 8.9407e-08 1Z" fill="currentColor"></path>
  </symbol>
  <symbol fill="none" xmlns="http://www.w3.org/2000/svg" viewBox="0 0 20 15" id="card">
    <path fill-rule="evenodd" clip-rule="evenodd" d="M4.948 0.250001H15.052C15.9505 0.249972 16.6997 0.249947 17.2945 0.329913C17.9223 0.414318 18.4891 0.599989 18.9445 1.05546C19.4 1.51093 19.5857 2.07773 19.6701 2.70552C19.7501 3.30031 19.75 4.04953 19.75 4.94801V10.052C19.75 10.9505 19.7501 11.6997 19.6701 12.2945C19.5857 12.9223 19.4 13.4891 18.9445 13.9445C18.4891 14.4 17.9223 14.5857 17.2945 14.6701C16.6997 14.7501 15.9505 14.75 15.052 14.75H4.94801C4.04953 14.75 3.3003 14.7501 2.70552 14.6701C2.07773 14.5857 1.51093 14.4 1.05546 13.9445C0.599989 13.4891 0.414318 12.9223 0.329913 12.2945C0.249947 11.6997 0.249972 10.9505 0.250001 10.052V4.948C0.249972 4.04952 0.249947 3.3003 0.329913 2.70552C0.414318 2.07773 0.599989 1.51093 1.05546 1.05546C1.51093 0.599989 2.07773 0.414318 2.70552 0.329913C3.3003 0.249947 4.04952 0.249972 4.948 0.250001ZM2.90539 1.81654C2.44393 1.87858 2.24644 1.9858 2.11612 2.11612C1.9858 2.24644 1.87858 2.44393 1.81654 2.90539C1.7516 3.38843 1.75 4.03599 1.75 5V10C1.75 10.964 1.7516 11.6116 1.81654 12.0946C1.87858 12.5561 1.9858 12.7536 2.11612 12.8839C2.24644 13.0142 2.44393 13.1214 2.90539 13.1835C3.38843 13.2484 4.03599 13.25 5 13.25H15C15.964 13.25 16.6116 13.2484 17.0946 13.1835C17.5561 13.1214 17.7536 13.0142 17.8839 12.8839C18.0142 12.7536 18.1214 12.5561 18.1835 12.0946C18.2484 11.6116 18.25 10.964 18.25 10V5C18.25 4.03599 18.2484 3.38843 18.1835 2.90539C18.1214 2.44393 18.0142 2.24644 17.8839 2.11612C17.7536 1.9858 17.5561 1.87858 17.0946 1.81654C16.6116 1.7516 15.964 1.75 15 1.75H5C4.03599 1.75 3.38843 1.7516 2.90539 1.81654Z" fill="currentColor"></path>
    <path fill-rule="evenodd" clip-rule="evenodd" d="M4.25 10C4.25 9.58579 4.58579 9.25 5 9.25H5.01C5.42422 9.25 5.76 9.58579 5.76 10C5.76 10.4142 5.42422 10.75 5.01 10.75H5C4.58579 10.75 4.25 10.4142 4.25 10Z" fill="currentColor"></path>
    <path fill-rule="evenodd" clip-rule="evenodd" d="M1.25 6C1.25 5.58579 1.58579 5.25 2 5.25H19C19.4142 5.25 19.75 5.58579 19.75 6C19.75 6.41422 19.4142 6.75 19 6.75H2C1.58579 6.75 1.25 6.41422 1.25 6Z" fill="currentColor"></path>
  </symbol>
  <symbol fill="none" xmlns="http://www.w3.org/2000/svg" viewBox="0 0 16 8" id="gotop">
    <path fill-rule="evenodd" clip-rule="evenodd" d="M8.29287 2.23883C8.12435 2.09438 7.87568 2.09438 7.70716 2.23883L1.48811 7.56944C1.17361 7.83901 0.700138 7.80259 0.430571 7.48809C0.161005 7.1736 0.197426 6.70013 0.51192 6.43056L6.73097 1.09994C7.46122 0.47401 8.5388 0.47401 9.26906 1.09994L15.4881 6.43056C15.8026 6.70012 15.839 7.1736 15.5695 7.48809C15.2999 7.80259 14.8264 7.83901 14.5119 7.56944L8.29287 2.23883Z" fill="currentColor"></path>
  </symbol>
  <symbol fill="none" xmlns="http://www.w3.org/2000/svg" viewBox="0 0 24 24" id="list">
    <path fill-rule="evenodd" clip-rule="evenodd" d="M12 0C5.37258 0 0 5.37258 0 12C0 18.6274 5.37258 24 12 24C18.6274 24 24 18.6274 24 12C24 5.37258 18.6274 0 12 0ZM18.0404 7.29289C18.431 7.68342 18.431 8.31658 18.0404 8.70711L10.7071 16.0404C10.3166 16.431 9.68342 16.431 9.29289 16.0404L5.95956 12.7071C5.56904 12.3166 5.56904 11.6834 5.95956 11.2929C6.35008 10.9024 6.98325 10.9024 7.37377 11.2929L10 13.9191L16.6262 7.29289C17.0168 6.90237 17.6499 6.90237 18.0404 7.29289Z" fill="currentColor"></path>
  </symbol>
  <symbol fill="none" xmlns="http://www.w3.org/2000/svg" viewBox="0 0 18 18" id="phone">
    <path d="M4.59914 0.559965L7.24727 3.20809C8.02832 3.98914 8.02832 5.25547 7.24727 6.03652L6.46774 6.81605C7.51362 8.76109 9.10848 10.356 11.0535 11.4018L11.8331 10.6223C12.6141 9.84126 13.8804 9.84125 14.6615 10.6223L17.3096 13.2704C18.0562 14.017 18.0562 15.2276 17.3096 15.9742C15.0325 18.2513 11.4275 18.5075 8.85126 16.5753L7.27584 15.3937C5.4565 14.0292 3.84034 12.4131 2.47584 10.5937L1.29428 9.01831C-0.637914 6.44206 -0.381716 2.83708 1.89539 0.559966C2.64201 -0.186654 3.85252 -0.186656 4.59914 0.559965Z" fill="currentColor"></path>
  </symbol>
  <symbol fill="none" xmlns="http://www.w3.org/2000/svg" viewBox="0 0 12 17" id="play">
    <path d="M0 15.622C0 16.4542 0.957083 16.9223 1.61394 16.4114L10.9851 9.12268C11.4999 8.72232 11.4999 7.94434 10.9851 7.54398L1.61394 0.255285C0.957084 -0.255604 0 0.212488 0 1.04464V15.622Z" fill="currentColor"></path>
  </symbol>
  <symbol fill="none" xmlns="http://www.w3.org/2000/svg" viewBox="0 0 22 26" id="shild">
    <path d="M12.7726 1.25972L20.5909 4.6104C21.1424 4.84676 21.5 5.38907 21.5 5.98911V13.8685C21.5 16.775 20.0963 19.5027 17.7311 21.1921L12.7437 24.7545C11.7006 25.4996 10.2994 25.4996 9.25628 24.7545L4.26886 21.1921C1.90369 19.5027 0.5 16.775 0.5 13.8685V5.98911C0.5 5.38907 0.857596 4.84676 1.40912 4.6104L9.22736 1.25972C10.3593 0.774591 11.6407 0.774592 12.7726 1.25972Z" fill="currentColor"></path>
  </symbol>
  <symbol fill="none" xmlns="http://www.w3.org/2000/svg" viewBox="0 0 32 32" id="ship">
    <path fill-rule="evenodd" clip-rule="evenodd" d="M16 2C16.5523 2 17 2.44772 17 3V6C17 6.55228 16.5523 7 16 7C15.4477 7 15 6.55228 15 6V3C15 2.44772 15.4477 2 16 2Z" fill="currentColor"></path>
    <path fill-rule="evenodd" clip-rule="evenodd" d="M15.9861 12.0546L5 15.7249L5 19.8553C5.83856 22.6009 8.10101 24.5374 10.493 25.8591C12.9034 27.1909 15.2876 27.8093 16 27.9756C16.7124 27.8093 19.0966 27.1909 21.507 25.8591C23.899 24.5374 26.1614 22.6009 27 19.8553V15.725L26.9956 15.7235L16.0139 12.0546C16.0047 12.0525 15.9953 12.0525 15.9861 12.0546ZM15.3934 10.1442C15.7886 10.0226 16.2114 10.0226 16.6066 10.1442L16.6294 10.1515L27.625 13.8251L27.6275 13.8259C28.0265 13.9577 28.3738 14.2119 28.6202 14.5524C28.8671 14.8935 29 15.3039 29 15.725V20C29 20.0931 28.987 20.1857 28.9614 20.2752C27.9422 23.8354 25.1008 26.1584 22.4742 27.6097C19.8399 29.0652 17.2602 29.7349 16.4604 29.9219C16.158 29.9969 15.842 29.9969 15.5396 29.9219C14.7398 29.7349 12.1601 29.0652 9.52575 27.6097C6.89923 26.1584 4.0578 23.8354 3.03862 20.2752C3.013 20.1857 3 20.0931 3 20V15.7251C2.99998 15.304 3.13288 14.8935 3.37977 14.5524C3.62614 14.2119 3.97348 13.9578 4.37246 13.8259L4.375 13.8251L15.3706 10.1515L15.3934 10.1442Z" fill="currentColor"></path>
    <path fill-rule="evenodd" clip-rule="evenodd" d="M16 10.05C16.5523 10.05 17 10.4977 17 11.05V21C17 21.5523 16.5523 22 16 22C15.4477 22 15 21.5523 15 21V11.05C15 10.4977 15.4477 10.05 16 10.05Z" fill="currentColor"></path>
    <path fill-rule="evenodd" clip-rule="evenodd" d="M6.58579 5.58579C6.96086 5.21071 7.46957 5 8 5H24C24.5304 5 25.0391 5.21071 25.4142 5.58579C25.7893 5.96086 26 6.46957 26 7V14C26 14.5523 25.5523 15 25 15C24.4477 15 24 14.5523 24 14V7H8L8 14C8 14.5523 7.55228 15 7 15C6.44772 15 6 14.5523 6 14V7C6 6.46957 6.21071 5.96086 6.58579 5.58579Z" fill="currentColor"></path>
  </symbol>
  <symbol fill="none" xmlns="http://www.w3.org/2000/svg" viewBox="0 0 20 18" id="showmore">
    <path fill-rule="evenodd" clip-rule="evenodd" d="M19.0187 1.09685C19.4329 1.09685 19.7687 1.43264 19.7687 1.84685V6.34685C19.7687 6.76107 19.4329 7.09685 19.0187 7.09685H14.5187C14.1045 7.09685 13.7687 6.76107 13.7687 6.34685C13.7687 5.93264 14.1045 5.59685 14.5187 5.59685H18.2687V1.84685C18.2687 1.43264 18.6045 1.09685 19.0187 1.09685Z" fill="currentColor"></path>
    <path fill-rule="evenodd" clip-rule="evenodd" d="M9.99995 1.50085C9.01535 1.50085 8.04041 1.69497 7.13089 2.07209C6.22137 2.44921 5.39513 3.00195 4.69942 3.69867C4.40674 3.99178 3.93187 3.99213 3.63876 3.69945C3.34565 3.40677 3.34531 2.93189 3.63798 2.63879C4.47301 1.80254 5.46471 1.13912 6.55636 0.68648C7.64801 0.233839 8.81818 0.000854492 9.99995 0.000854492C11.1817 0.000854492 12.3519 0.233839 13.4435 0.68648C14.535 1.13903 15.5265 1.80227 16.3614 2.63828C16.3616 2.63845 16.3612 2.63811 16.3614 2.63828L19.5482 5.81574C19.8416 6.1082 19.8423 6.58308 19.5498 6.8764C19.2573 7.16973 18.7825 7.17042 18.4892 6.87796L15.3005 3.69867C14.6048 3.00195 13.7785 2.44921 12.869 2.07209C11.9595 1.69497 10.9846 1.50085 9.99995 1.50085Z" fill="currentColor"></path>
    <path fill-rule="evenodd" clip-rule="evenodd" d="M0.231201 11.6531C0.231201 11.2389 0.566988 10.9031 0.981201 10.9031H5.4812C5.89542 10.9031 6.2312 11.2389 6.2312 11.6531C6.2312 12.0673 5.89542 12.4031 5.4812 12.4031H1.7312V16.1531C1.7312 16.5673 1.39541 16.9031 0.981201 16.9031C0.566988 16.9031 0.231201 16.5673 0.231201 16.1531V11.6531Z" fill="currentColor"></path>
    <path fill-rule="evenodd" clip-rule="evenodd" d="M0.45009 11.1236C0.742552 10.8302 1.21743 10.8295 1.51075 11.122L4.69942 14.3013C5.39513 14.998 6.22137 15.5507 7.13089 15.9279C8.04041 16.305 9.01535 16.4991 9.99995 16.4991C10.9846 16.4991 11.9595 16.305 12.869 15.9279C13.7785 15.5507 14.6048 14.998 15.3005 14.3013C15.5932 14.0082 16.068 14.0078 16.3611 14.3005C16.6543 14.5932 16.6546 15.0681 16.3619 15.3612C15.5269 16.1974 14.5352 16.8608 13.4435 17.3135C12.3519 17.7661 11.1817 17.9991 9.99995 17.9991C8.81818 17.9991 7.64801 17.7661 6.55636 17.3135C5.46499 16.8609 4.47351 16.1978 3.63862 15.3618C3.63841 15.3616 3.63883 15.362 3.63862 15.3618L0.451653 12.1842C0.158328 11.8918 0.157629 11.4169 0.45009 11.1236Z" fill="currentColor"></path>
  </symbol>
  <symbol fill="none" xmlns="http://www.w3.org/2000/svg" viewBox="0 0 14 14" id="slider">
    <path fill-rule="evenodd" clip-rule="evenodd" d="M0.166748 6.99996C0.166748 6.44767 0.614463 5.99996 1.16675 5.99996H12.8334C13.3857 5.99996 13.8334 6.44767 13.8334 6.99996C13.8334 7.55224 13.3857 7.99996 12.8334 7.99996H1.16675C0.614463 7.99996 0.166748 7.55224 0.166748 6.99996Z" fill="currentColor"></path>
    <path fill-rule="evenodd" clip-rule="evenodd" d="M6.29297 0.459519C6.6835 0.0689949 7.31666 0.0689949 7.70719 0.459519L13.5405 6.29285C13.931 6.68338 13.931 7.31654 13.5405 7.70707L7.70719 13.5404C7.31666 13.9309 6.6835 13.9309 6.29297 13.5404C5.90245 13.1499 5.90245 12.5167 6.29297 12.1262L11.4192 6.99996L6.29297 1.87373C5.90245 1.48321 5.90245 0.850043 6.29297 0.459519Z" fill="currentColor"></path>
  </symbol>
  <symbol fill="none" xmlns="http://www.w3.org/2000/svg" viewBox="0 0 14 8" id="spoiler">
    <path fill-rule="evenodd" clip-rule="evenodd" d="M0.292893 0.292893C0.683417 -0.0976311 1.31658 -0.0976311 1.70711 0.292893L7 5.58579L12.2929 0.292893C12.6834 -0.0976311 13.3166 -0.0976311 13.7071 0.292893C14.0976 0.683417 14.0976 1.31658 13.7071 1.70711L7.70711 7.70711C7.31658 8.09763 6.68342 8.09763 6.29289 7.70711L0.292893 1.70711C-0.0976311 1.31658 -0.0976311 0.683417 0.292893 0.292893Z" fill="currentColor"></path>
  </symbol>
  <symbol fill="none" xmlns="http://www.w3.org/2000/svg" viewBox="0 0 16 13" id="telegram">
    <path fill-rule="evenodd" clip-rule="evenodd" d="M1.03204 5.48088C5.74504 3.40751 11.844 0.87963 12.6859 0.529755C14.8943 -0.385995 15.5719 -0.210495 15.234 1.81751C14.9914 3.27513 14.2913 8.10101 13.7333 11.1048C13.4022 12.886 12.6593 13.0971 11.4912 12.3265C10.9294 11.9556 8.09404 10.0806 7.47867 9.64038C6.91692 9.23913 6.14216 8.75651 7.11379 7.80588C7.45954 7.46726 9.72604 5.30313 11.4919 3.61863C11.7233 3.39738 11.4327 3.03401 11.1657 3.21138C8.78554 4.78976 5.48554 6.98051 5.06554 7.26588C4.43104 7.69676 3.82167 7.89438 2.72779 7.58013C1.90129 7.34276 1.09391 7.05963 0.779665 6.95163C-0.43046 6.53613 -0.14321 5.99801 1.03204 5.48088Z" fill="currentColor"></path>
  </symbol>
  <symbol fill="none" xmlns="http://www.w3.org/2000/svg" viewBox="0 0 18 15" id="telegram-mobile">
    <path fill-rule="evenodd" clip-rule="evenodd" d="M1.21289 6.44823C6.75176 4.00892 13.9195 1.03488 14.9089 0.623255C17.5043 -0.454121 18.3006 -0.247646 17.9035 2.13829C17.6184 3.85318 16.7956 9.5308 16.1398 13.0647C15.7507 15.1603 14.8776 15.4087 13.5048 14.5021C12.8446 14.0658 9.51238 11.8598 8.78917 11.3419C8.12898 10.8698 7.21847 10.302 8.36036 9.18359C8.76669 8.7852 11.4304 6.23911 13.5057 4.2573C13.7776 3.997 13.436 3.5695 13.1223 3.77818C10.3251 5.63513 6.44678 8.21254 5.95319 8.54828C5.2075 9.0552 4.49134 9.28771 3.20579 8.918C2.23446 8.63872 1.2856 8.30563 0.916287 8.17857C-0.505891 7.68973 -0.168305 7.05663 1.21289 6.44823Z" fill="currentColor"></path>
  </symbol>
  <symbol fill="none" xmlns="http://www.w3.org/2000/svg" viewBox="0 0 32 32" id="train">
    <path fill-rule="evenodd" clip-rule="evenodd" d="M4.5 16C4.5 15.4477 4.94772 15 5.5 15H26.5C27.0523 15 27.5 15.4477 27.5 16C27.5 16.5523 27.0523 17 26.5 17H5.5C4.94772 17 4.5 16.5523 4.5 16Z" fill="currentColor"></path>
    <path fill-rule="evenodd" clip-rule="evenodd" d="M4.5 9C4.5 8.44772 4.94772 8 5.5 8H26.5C27.0523 8 27.5 8.44772 27.5 9C27.5 9.55228 27.0523 10 26.5 10H5.5C4.94772 10 4.5 9.55228 4.5 9Z" fill="currentColor"></path>
    <path fill-rule="evenodd" clip-rule="evenodd" d="M12.6 25.2C13.0418 25.5314 13.1314 26.1582 12.8 26.6L9.8 30.6C9.46863 31.0418 8.84183 31.1314 8.4 30.8C7.95817 30.4686 7.86863 29.8418 8.2 29.4L11.2 25.4C11.5314 24.9582 12.1582 24.8686 12.6 25.2Z" fill="currentColor"></path>
    <path fill-rule="evenodd" clip-rule="evenodd" d="M19.4 25.2C19.8418 24.8686 20.4686 24.9582 20.8 25.4L23.8 29.4C24.1314 29.8418 24.0418 30.4686 23.6 30.8C23.1582 31.1314 22.5314 31.0418 22.2 30.6L19.2 26.6C18.8686 26.1582 18.9582 25.5314 19.4 25.2Z" fill="currentColor"></path>
    <path fill-rule="evenodd" clip-rule="evenodd" d="M8.5 5C7.39543 5 6.5 5.89543 6.5 7V23C6.5 24.1046 7.39543 25 8.5 25H23.5C24.6046 25 25.5 24.1046 25.5 23V7C25.5 5.89543 24.6046 5 23.5 5H8.5ZM4.5 7C4.5 4.79086 6.29086 3 8.5 3H23.5C25.7091 3 27.5 4.79086 27.5 7V23C27.5 25.2091 25.7091 27 23.5 27H8.5C6.29086 27 4.5 25.2091 4.5 23V7Z" fill="currentColor"></path>
    <path fill-rule="evenodd" clip-rule="evenodd" d="M16 8C16.5523 8 17 8.44772 17 9V16C17 16.5523 16.5523 17 16 17C15.4477 17 15 16.5523 15 16V9C15 8.44772 15.4477 8 16 8Z" fill="currentColor"></path>
    <path d="M10.5 23C11.3284 23 12 22.3284 12 21.5C12 20.6716 11.3284 20 10.5 20C9.67157 20 9 20.6716 9 21.5C9 22.3284 9.67157 23 10.5 23Z" fill="currentColor"></path>
    <path d="M21.5 23C22.3284 23 23 22.3284 23 21.5C23 20.6716 22.3284 20 21.5 20C20.6716 20 20 20.6716 20 21.5C20 22.3284 20.6716 23 21.5 23Z" fill="currentColor"></path>
  </symbol>
  <symbol fill="none" xmlns="http://www.w3.org/2000/svg" viewBox="0 0 32 32" id="truck">
    <path fill-rule="evenodd" clip-rule="evenodd" d="M27.323 11L29.0715 15.3714C29.2766 15.8842 29.8586 16.1336 30.3714 15.9285C30.8842 15.7234 31.1336 15.1414 30.9285 14.6286L29.1802 10.2579C29.1799 10.2571 29.1795 10.2562 29.1792 10.2554C29.0318 9.88346 28.7757 9.56465 28.4441 9.34066C28.1129 9.11687 27.722 8.99816 27.3223 9H27.325V10L27.3185 9.00002C27.3198 9.00001 27.321 9.00001 27.3223 9" fill="currentColor"></path>
    <path fill-rule="evenodd" clip-rule="evenodd" d="M1 18C1 17.4477 1.44772 17 2 17H22C22.5523 17 23 17.4477 23 18C23 18.5523 22.5523 19 22 19H2C1.44772 19 1 18.5523 1 18Z" fill="currentColor"></path>
    <path fill-rule="evenodd" clip-rule="evenodd" d="M23.5 22C22.3954 22 21.5 22.8954 21.5 24C21.5 25.1046 22.3954 26 23.5 26C24.6046 26 25.5 25.1046 25.5 24C25.5 22.8954 24.6046 22 23.5 22ZM19.5 24C19.5 21.7909 21.2909 20 23.5 20C25.7091 20 27.5 21.7909 27.5 24C27.5 26.2091 25.7091 28 23.5 28C21.2909 28 19.5 26.2091 19.5 24Z" fill="currentColor"></path>
    <path fill-rule="evenodd" clip-rule="evenodd" d="M8.5 22C7.39543 22 6.5 22.8954 6.5 24C6.5 25.1046 7.39543 26 8.5 26C9.60457 26 10.5 25.1046 10.5 24C10.5 22.8954 9.60457 22 8.5 22ZM4.5 24C4.5 21.7909 6.29086 20 8.5 20C10.7091 20 12.5 21.7909 12.5 24C12.5 26.2091 10.7091 28 8.5 28C6.29086 28 4.5 26.2091 4.5 24Z" fill="currentColor"></path>
    <path fill-rule="evenodd" clip-rule="evenodd" d="M10.5 24C10.5 23.4477 10.9477 23 11.5 23H20.5C21.0523 23 21.5 23.4477 21.5 24C21.5 24.5523 21.0523 25 20.5 25H11.5C10.9477 25 10.5 24.5523 10.5 24Z" fill="currentColor"></path>
    <path fill-rule="evenodd" clip-rule="evenodd" d="M1.58579 7.58579C1.96086 7.21071 2.46957 7 3 7H22C22.5523 7 23 7.44772 23 8V21.4C23 21.9523 22.5523 22.4 22 22.4C21.4477 22.4 21 21.9523 21 21.4V9L3 9V23H5.5C6.05228 23 6.5 23.4477 6.5 24C6.5 24.5523 6.05228 25 5.5 25H3C2.46957 25 1.96086 24.7893 1.58579 24.4142C1.21071 24.0391 1 23.5304 1 23V9C1 8.46957 1.21071 7.96086 1.58579 7.58579Z" fill="currentColor"></path>
    <path fill-rule="evenodd" clip-rule="evenodd" d="M21 15C21 14.4477 21.4477 14 22 14H30C30.5523 14 31 14.4477 31 15V23C31 23.5304 30.7893 24.0391 30.4142 24.4142C30.0391 24.7893 29.5304 25 29 25H26.5C25.9477 25 25.5 24.5523 25.5 24C25.5 23.4477 25.9477 23 26.5 23H29V16H22C21.4477 16 21 15.5523 21 15Z" fill="currentColor"></path>
  </symbol>
  <symbol fill="none" xmlns="http://www.w3.org/2000/svg" viewBox="0 0 17 18" id="viber">
    <path d="M12.7205 0.427237C9.73754 -0.142412 6.63988 -0.142412 3.65695 0.427237C2.33758 0.712061 0.674027 2.30708 0.387207 3.56031C-0.129069 6.0098 -0.129069 8.51625 0.387207 10.9657C0.731391 12.219 2.39495 13.814 3.65695 14.0988C3.71432 14.0988 3.77168 14.1558 3.77168 14.2127V17.8015C3.77168 17.9724 4.00114 18.0864 4.11587 17.9155L5.83679 16.1496C5.83679 16.1496 7.21352 14.7254 7.44298 14.4976C7.44298 14.4976 7.50034 14.4406 7.55771 14.4406C9.27863 14.4976 11.0569 14.3267 12.7778 14.0419C14.0972 13.757 15.7608 12.162 16.0476 10.9088C16.5639 8.45929 16.5639 5.95283 16.0476 3.50334C15.7034 2.30708 14.0398 0.712061 12.7205 0.427237ZM12.7778 11.1366C12.491 11.7063 12.1468 12.162 11.5732 12.4468C11.4011 12.5038 11.229 12.5608 11.0569 12.6177C10.8275 12.5608 10.6554 12.5038 10.4833 12.4468C8.64762 11.7063 6.9267 10.6809 5.54997 9.19983C4.80423 8.34536 4.17323 7.37696 3.65695 6.35159C3.4275 5.8389 3.19804 5.38318 3.02595 4.8705C2.85386 4.41478 3.14068 3.95906 3.4275 3.61727C3.71432 3.27548 4.0585 3.04762 4.46005 2.87673C4.74687 2.70583 5.03369 2.81976 5.26315 3.04762C5.72206 3.61727 6.18097 4.18692 6.52515 4.81353C6.75461 5.21229 6.69724 5.66801 6.2957 5.95283C6.18097 6.0098 6.1236 6.06676 6.00888 6.18069C5.95151 6.23766 5.83678 6.29462 5.77942 6.40855C5.66469 6.57945 5.66469 6.75034 5.72206 6.92124C6.18097 8.23143 7.04143 9.2568 8.3608 9.82645C8.59026 9.94038 8.76235 9.99734 9.04917 9.99734C9.45072 9.94038 9.62281 9.48466 9.90963 9.2568C10.1964 9.02894 10.5406 9.02894 10.8848 9.19983C11.1716 9.37073 11.4585 9.59859 11.8026 9.82645C12.0895 10.0543 12.3763 10.2252 12.6631 10.4531C12.8352 10.567 12.8926 10.8518 12.7778 11.1366ZM10.3685 6.86427C10.2538 6.86427 10.3112 6.86427 10.3685 6.86427C10.1391 6.86427 10.0817 6.75034 10.0244 6.57945C10.0244 6.46552 10.0244 6.29462 9.96699 6.18069C9.90963 5.95283 9.7949 5.72497 9.56545 5.55408C9.45072 5.49711 9.33599 5.44015 9.22126 5.38318C9.04917 5.32622 8.93444 5.32622 8.76235 5.32622C8.59026 5.26925 8.53289 5.15532 8.53289 4.98443C8.53289 4.8705 8.70499 4.75657 8.81971 4.75657C9.73754 4.81354 10.4259 5.32622 10.5406 6.40855C10.5406 6.46552 10.5406 6.57945 10.5406 6.63641C10.5406 6.75034 10.4833 6.86427 10.3685 6.86427ZM9.7949 4.35782C9.50808 4.24389 9.22126 4.12996 8.87708 4.07299C8.76235 4.07299 8.59026 4.01603 8.47553 4.01603C8.30344 4.01603 8.18871 3.9021 8.24607 3.7312C8.24607 3.56031 8.3608 3.44638 8.53289 3.50334C9.10653 3.56031 9.62281 3.67424 10.1391 3.9021C11.1716 4.41478 11.7453 5.26925 11.9174 6.40855C11.9174 6.46552 11.9174 6.52248 11.9174 6.57945C11.9174 6.69338 11.9174 6.80731 11.9174 6.9782C11.9174 7.03517 11.9174 7.09213 11.9174 7.1491C11.86 7.37696 11.4585 7.43392 11.4011 7.1491C11.4011 7.09213 11.3437 6.9782 11.3437 6.92124C11.3437 6.40855 11.229 5.89587 10.9995 5.44015C10.6554 4.92746 10.2538 4.58567 9.7949 4.35782ZM12.8926 7.77571C12.7205 7.77571 12.6057 7.60482 12.6057 7.43392C12.6057 7.09213 12.5484 6.75034 12.491 6.40855C12.2616 4.58567 10.7701 3.10459 8.99181 2.81976C8.70499 2.7628 8.41817 2.7628 8.18871 2.70583C8.01662 2.70583 7.78716 2.70583 7.7298 2.47797C7.67243 2.30708 7.84452 2.13618 8.01662 2.13618C8.07398 2.13618 8.13135 2.13618 8.13135 2.13618C10.4833 2.19315 8.24607 2.13618 8.13135 2.13618C10.5406 2.19315 12.5484 3.78817 12.9499 6.18069C13.0073 6.57945 13.0646 6.9782 13.0646 7.43392C13.1794 7.60482 13.0646 7.77571 12.8926 7.77571Z" fill="currentColor"></path>
  </symbol>
  <symbol fill="none" xmlns="http://www.w3.org/2000/svg" viewBox="0 0 20 13" id="vk">
    <path d="M10.8931 12.4797C4.0599 12.4797 0.162399 7.79513 0 0H3.42286C3.53529 5.72142 6.05865 8.14491 8.0574 8.6446V0H11.2805V4.93442C13.2543 4.72205 15.3277 2.47345 16.0273 0H19.2503C18.7132 3.0481 16.4646 5.29669 14.8656 6.22111C16.4646 6.97064 19.0256 8.93192 20 12.4797H16.4521C15.6901 10.1062 13.7914 8.26983 11.2805 8.01999V12.4797H10.8931Z" fill="currentColor"></path>
  </symbol>
  <symbol fill="none" xmlns="http://www.w3.org/2000/svg" viewBox="0 0 17 17" id="whatsapp">
    <path d="M14.5122 2.47917C12.9129 0.885416 10.7805 0 8.52961 0C3.85017 0 0.0592325 3.77778 0.0592325 8.44097C0.0592325 9.91667 0.473868 11.3924 1.18467 12.6319L0 17L4.50174 15.8194C5.74565 16.4688 7.10801 16.8229 8.52961 16.8229C13.2091 16.8229 17 13.0451 17 8.38194C16.9408 6.19792 16.1115 4.07292 14.5122 2.47917ZM12.6167 11.4514C12.439 11.9236 11.6098 12.3958 11.1951 12.4549C10.8397 12.5139 10.3659 12.5139 9.89199 12.3958C9.59582 12.2778 9.18118 12.1597 8.70732 11.9236C6.57491 11.0382 5.21254 8.91319 5.09408 8.73611C4.97561 8.61806 4.20558 7.61458 4.20558 6.55208C4.20558 5.48958 4.73868 5.01736 4.91638 4.78125C5.09408 4.54514 5.33101 4.54514 5.50871 4.54514C5.62718 4.54514 5.80488 4.54514 5.92334 4.54514C6.04181 4.54514 6.21951 4.48611 6.39721 4.89931C6.57491 5.3125 6.98955 6.375 7.04878 6.43403C7.10801 6.55208 7.10801 6.67014 7.04878 6.78819C6.98955 6.90625 6.93031 7.0243 6.81184 7.14236C6.69338 7.26042 6.57491 7.4375 6.51568 7.49653C6.39721 7.61458 6.27874 7.73264 6.39721 7.90972C6.51568 8.14583 6.93031 8.79514 7.58188 9.38542C8.41115 10.0937 9.06272 10.3299 9.29965 10.4479C9.53658 10.566 9.65505 10.5069 9.77352 10.3889C9.89198 10.2708 10.3066 9.79861 10.4251 9.5625C10.5436 9.32639 10.7213 9.38542 10.899 9.44444C11.0767 9.50347 12.1429 10.0347 12.3206 10.1528C12.5575 10.2708 12.676 10.3299 12.7352 10.3889C12.7944 10.566 12.7944 10.9792 12.6167 11.4514Z" fill="currentColor"></path>
  </symbol>
  <symbol fill="none" xmlns="http://www.w3.org/2000/svg" viewBox="0 0 20 20" id="whatsapp-mobile">
    <path d="M17.0732 2.91667C15.1916 1.04167 12.6829 0 10.0348 0C4.52961 0 0.0696853 4.44444 0.0696853 9.93056C0.0696853 11.6667 0.557491 13.4028 1.39373 14.8611L0 20L5.29617 18.6111C6.75958 19.375 8.36237 19.7917 10.0348 19.7917C15.5401 19.7917 20 15.3472 20 9.86111C19.9303 7.29167 18.9547 4.79167 17.0732 2.91667ZM14.8432 13.4722C14.6341 14.0278 13.6585 14.5833 13.1707 14.6528C12.7526 14.7222 12.1951 14.7222 11.6376 14.5833C11.2892 14.4444 10.8014 14.3056 10.2439 14.0278C7.73519 12.9861 6.13241 10.4861 5.99303 10.2778C5.85366 10.1389 4.94774 8.95833 4.94774 7.70833C4.94774 6.45833 5.57491 5.90278 5.78397 5.625C5.99303 5.34722 6.27178 5.34722 6.48084 5.34722C6.62021 5.34722 6.82927 5.34722 6.96864 5.34722C7.10801 5.34722 7.31707 5.27778 7.52613 5.76389C7.73519 6.25 8.22299 7.5 8.29268 7.56944C8.36237 7.70833 8.36237 7.84722 8.29268 7.98611C8.22299 8.125 8.15331 8.26389 8.01393 8.40278C7.87456 8.54167 7.73519 8.75 7.6655 8.81944C7.52613 8.95833 7.38676 9.09722 7.52613 9.30555C7.6655 9.58333 8.15331 10.3472 8.91986 11.0417C9.89547 11.875 10.662 12.1528 10.9408 12.2917C11.2195 12.4306 11.3589 12.3611 11.4983 12.2222C11.6376 12.0833 12.1254 11.5278 12.2648 11.25C12.4042 10.9722 12.6132 11.0417 12.8223 11.1111C13.0314 11.1806 14.2857 11.8056 14.4948 11.9444C14.7735 12.0833 14.9129 12.1528 14.9826 12.2222C15.0523 12.4306 15.0523 12.9167 14.8432 13.4722Z" fill="currentColor"></path>
  </symbol>
  <symbol fill="none" xmlns="http://www.w3.org/2000/svg" viewBox="0 0 12 12" id="x">
    <path fill-rule="evenodd" clip-rule="evenodd" d="M0.492844 0.4926C0.883369 0.102076 1.51653 0.102076 1.90706 0.4926L5.99995 4.58549L10.0928 0.4926C10.4834 0.102076 11.1165 0.102076 11.5071 0.4926C11.8976 0.883125 11.8976 1.51629 11.5071 1.90681L7.41416 5.99971L11.5071 10.0926C11.8976 10.4831 11.8976 11.1163 11.5071 11.5068C11.1165 11.8973 10.4834 11.8973 10.0928 11.5068L5.99995 7.41392L1.90706 11.5068C1.51653 11.8973 0.883369 11.8973 0.492844 11.5068C0.10232 11.1163 0.10232 10.4831 0.492844 10.0926L4.58574 5.99971L0.492844 1.90681C0.10232 1.51629 0.10232 0.883125 0.492844 0.4926Z" fill="currentColor"></path>
  </symbol>
</svg>