<svg width="120" height="120" viewBox="0 0 120 120" fill="none" xmlns="http://www.w3.org/2000/svg">
<path d="M60 0C26.8581 0 0 26.8581 0 60C0 93.1419 26.8581 120 60 120C93.1419 120 120 93.1419 120 60C120 26.8581 93.1419 0 60 0Z" fill="#FBDC51"/>
<path d="M45.8897 85.5515C46.4577 86.0906 47.126 86.4949 47.7275 86.8655C50.668 88.6513 54.6443 90.8077 59.0884 91.8186C59.3558 91.8859 59.9572 91.987 60.8928 92.0881C60.8594 92.2229 60.7592 92.4587 60.5587 92.8968C59.5228 95.0869 57.6182 96.064 54.5106 95.9966C51.1358 95.9292 47.6941 94.9521 44.2858 92.9978C36.7675 88.7524 31.6885 82.2158 29.2492 73.5564C28.1466 69.6816 28.0797 65.6721 29.0153 61.2245C29.9844 56.5747 31.7553 52.801 34.4285 49.6337C37.7365 45.7253 41.9468 43.7036 46.8921 43.6362H47.4936C47.6941 43.6362 47.8946 43.6362 48.0616 43.6362C48.329 43.6362 48.5963 43.6362 48.8636 43.6362C46.558 45.9948 46.3241 48.5892 48.1285 51.5543C50.2336 54.9911 53.5082 56.7769 56.6492 58.3605C61.4943 60.7528 66.6401 62.1342 70.5831 63.0776C72.4209 63.5157 73.8911 64.1895 75.094 65.1667C75.9294 65.8405 76.3638 66.6492 76.3638 67.4578C76.3638 68.2328 75.896 68.9741 75.094 69.5806C73.2562 70.962 71.0843 71.2316 68.0101 70.4566C63.6328 69.3447 59.1219 67.4578 54.2433 64.6275C54.1765 64.5939 54.1097 64.5602 54.0428 64.4928C53.7087 64.2569 52.8065 63.6167 51.9377 64.5265C51.5033 65.0319 51.1358 65.8742 51.9377 67.1209C52.3387 67.7274 52.8733 68.098 53.3077 68.3339C58.9548 71.4337 63.967 73.3543 69.0126 74.3651C69.7811 74.5336 70.5496 74.5336 71.2848 74.5336H71.4853C71.7526 74.5336 71.8194 74.601 71.8194 74.601C71.8194 74.601 71.8528 74.6683 71.8528 74.8368C71.8194 76.9595 71.2848 78.4757 70.2823 79.3855C69.3801 80.1604 68.077 80.4637 66.3728 80.2615C61.9287 79.7561 58.1862 77.7682 53.7421 75.2411C53.007 74.8031 52.2719 74.3314 51.5368 73.8597C51.069 73.5564 50.6012 73.2532 50.0999 72.95L49.9997 72.8826C49.5987 72.613 48.496 71.9391 47.6272 73.0173C46.9255 73.8934 47.0258 74.9716 47.928 75.7803C49.2311 76.9595 50.7348 77.8019 52.205 78.6442L52.9067 79.0485C56.9833 81.3734 60.3248 82.7549 63.6662 83.5635C64.5684 83.7657 65.504 83.8331 66.4062 83.9342C66.707 83.9679 67.0077 83.9679 67.3084 84.0016C67.4755 84.0016 67.5423 84.069 67.5757 84.0353C67.5757 84.069 67.5757 84.2037 67.5089 84.4396C66.8072 86.8992 64.9026 88.3144 62.3631 88.3818C58.4201 88.4829 55.0453 86.7982 51.3363 84.7765C50.6011 84.3722 49.8326 83.9005 49.1977 83.4625L49.0975 83.3951C48.6965 83.1592 48.2955 82.8897 47.8946 82.6538C47.8277 82.6201 47.7609 82.5864 47.6607 82.519C47.3599 82.2832 46.8921 81.9462 46.3241 82.0473C45.9899 82.1147 45.6558 82.3506 45.4553 82.6875C44.9207 83.5972 45.0543 84.8102 45.8897 85.5515Z" fill="black"/>
<path d="M76.0411 92.0545C72.7808 93.9931 68.9828 95.2855 64.3781 95.9997C65.3192 95.0134 65.9915 93.721 66.3948 92.0885C66.5292 91.5443 66.7309 91.2722 67.2351 91.1021C70.3945 90.0138 72.3103 87.667 73.2178 83.7218C73.3858 82.9395 73.6547 82.3613 74.2933 81.8512C76.8141 79.9466 77.2847 77.0897 77.3855 74.3348C77.4191 73.2464 77.688 72.7703 78.5619 72.2601C80.6794 70.9677 81.8558 69.0631 81.923 66.9204C81.9902 64.6077 80.6794 62.3629 78.3266 60.7644C76.7133 59.6761 74.8647 59.1319 73.1506 58.6898C67.84 57.3973 62.1934 55.7308 57.051 52.5678C55.236 51.4454 53.9252 50.221 53.0177 48.8266C52.3119 47.7042 52.1774 46.854 52.6144 46.0037C52.9841 45.2895 53.5891 45.0174 54.9671 44.9493C55.1016 44.9493 55.236 44.9493 55.3705 44.9493C58.0929 44.9493 60.6137 46.1057 63.0673 47.1941C63.5379 47.3981 64.0084 47.6702 64.479 47.9083C64.9495 48.1464 65.5209 48.4525 66.0923 48.6905C66.8317 49.0307 67.4031 49.0307 67.8401 48.7246C68.3106 48.4185 68.5123 47.8743 68.4787 47.024C68.4451 45.7996 67.8737 44.8133 67.3023 43.827C67.2015 43.6569 67.1342 43.5209 67.0334 43.3508C66.5628 42.5346 66.1259 41.6843 65.6554 40.868L65.5209 40.63C63.9412 37.8411 62.3279 34.9842 61.1179 31.9572C59.4037 27.6718 58.7651 23.6585 59.2357 19.6792C59.5046 17.4005 61.4876 15.5299 63.874 15.2918C65.857 15.0878 67.9073 16.5162 68.6131 18.5909C69.9911 22.6722 72.1759 26.1753 74.1253 29.0322C75.5033 31.0389 76.8814 33.0455 78.2594 35.0522L78.3266 35.1202C79.7047 37.0928 81.0827 39.0995 82.4271 41.0721C86.5613 47.1601 89.1829 52.5338 90.6618 58.0095C91.3676 60.5263 91.5357 63.1112 91.6365 66.7163C90.9979 77.5998 85.5866 86.3066 76.0411 92.0545Z" fill="black"/>
</svg>
