<svg width="557" height="557" viewBox="0 0 557 557" fill="none" xmlns="http://www.w3.org/2000/svg">
<g opacity="0.25">
<g filter="url(#filter0_i_304_854)">
<path d="M278.5 0C124.666 0 0 124.666 0 278.5C0 432.334 124.666 557 278.5 557C432.334 557 557 432.334 557 278.5C557 124.666 432.334 0 278.5 0Z" fill="#FBDC51"/>
</g>
<path d="M213.003 397.102C215.64 399.604 218.742 401.481 221.534 403.201C235.182 411.49 253.639 421.5 274.267 426.191C275.508 426.504 278.3 426.973 282.643 427.443C282.488 428.068 282.022 429.163 281.092 431.196C276.284 441.362 267.443 445.897 253.019 445.585C237.354 445.272 221.379 440.736 205.559 431.665C170.661 411.959 147.086 381.619 135.764 341.425C130.646 323.439 130.335 304.828 134.678 284.184C139.176 262.601 147.396 245.085 159.804 230.384C175.159 212.242 194.702 202.858 217.656 202.545H220.448C221.379 202.545 222.309 202.545 223.085 202.545C224.326 202.545 225.566 202.545 226.807 202.545C216.105 213.493 215.02 225.535 223.395 239.298C233.166 255.251 248.366 263.54 262.945 270.89C285.435 281.994 309.32 288.407 327.622 292.786C336.152 294.819 342.976 297.947 348.56 302.482C352.438 305.61 354.454 309.364 354.454 313.117C354.454 316.714 352.282 320.155 348.56 322.97C340.03 329.382 329.948 330.633 315.679 327.036C295.361 321.875 274.423 313.117 251.778 299.98C251.468 299.823 251.158 299.667 250.848 299.354C249.297 298.26 245.109 295.288 241.076 299.511C239.06 301.857 237.354 305.767 241.076 311.553C242.937 314.368 245.419 316.089 247.435 317.183C273.647 331.572 296.912 340.486 320.332 345.178C323.899 345.96 327.467 345.96 330.879 345.96H331.809C333.05 345.96 333.36 346.273 333.36 346.273C333.36 346.273 333.515 346.586 333.515 347.368C333.36 357.221 330.879 364.259 326.226 368.481C322.038 372.078 315.989 373.486 308.079 372.548C287.451 370.202 270.08 360.974 249.452 349.245C246.039 347.211 242.627 345.022 239.215 342.832C237.044 341.425 234.872 340.017 232.546 338.61L232.08 338.297C230.219 337.046 225.101 333.918 221.068 338.923C217.811 342.989 218.277 347.993 222.464 351.747C228.513 357.221 235.493 361.131 242.317 365.041L245.574 366.917C264.496 377.709 280.006 384.121 295.516 387.874C299.704 388.813 304.047 389.126 308.234 389.595C309.63 389.751 311.026 389.751 312.422 389.908C313.197 389.908 313.508 390.22 313.663 390.064C313.663 390.22 313.663 390.846 313.353 391.941C310.095 403.358 301.255 409.926 289.467 410.239C271.165 410.708 255.5 402.888 238.284 393.505C234.872 391.628 231.305 389.438 228.358 387.405L227.893 387.092C226.032 385.998 224.17 384.747 222.309 383.652C221.999 383.495 221.689 383.339 221.224 383.026C219.828 381.931 217.656 380.367 215.02 380.837C213.469 381.149 211.918 382.244 210.987 383.808C208.505 388.031 209.126 393.661 213.003 397.102Z" fill="white"/>
<path d="M352.956 427.287C337.823 436.286 320.194 442.285 298.82 445.6C303.189 441.022 306.309 435.023 308.181 427.445C308.805 424.919 309.741 423.656 312.081 422.867C326.746 417.815 335.639 406.922 339.851 388.61C340.631 384.979 341.879 382.295 344.843 379.927C356.544 371.087 358.728 357.826 359.196 345.038C359.352 339.987 360.6 337.777 364.657 335.409C374.485 329.41 379.946 320.569 380.258 310.623C380.57 299.888 374.485 289.469 363.565 282.049C356.076 276.998 347.496 274.472 339.539 272.419C314.889 266.421 288.68 258.685 264.81 244.003C256.386 238.794 250.301 233.111 246.089 226.638C242.813 221.428 242.189 217.482 244.217 213.535C245.933 210.22 248.741 208.957 255.138 208.641C255.762 208.641 256.386 208.641 257.01 208.641C269.647 208.641 281.347 214.009 292.736 219.06C294.92 220.008 297.104 221.27 299.288 222.376C301.473 223.481 304.125 224.901 306.777 226.006C310.209 227.585 312.861 227.585 314.889 226.164C317.074 224.744 318.01 222.218 317.854 218.271C317.698 212.588 315.046 208.01 312.393 203.431C311.925 202.642 311.613 202.011 311.145 201.221C308.961 197.433 306.933 193.486 304.749 189.697L304.125 188.592C296.792 175.647 289.304 162.386 283.687 148.336C275.731 128.445 272.767 109.816 274.951 91.3457C276.199 80.7686 285.404 72.0859 296.48 70.9808C305.685 70.0336 315.201 76.6641 318.478 86.294C324.874 105.238 335.015 121.498 344.063 134.759C350.46 144.073 356.856 153.388 363.253 162.702L363.565 163.017C369.961 172.174 376.357 181.488 382.598 190.644C401.787 218.903 413.956 243.846 420.82 269.262C424.097 280.944 424.877 292.942 425.345 309.676C422.38 360.194 397.263 400.608 352.956 427.287Z" fill="white"/>
</g>
<defs>
<filter id="filter0_i_304_854" x="0" y="0" width="557" height="557" filterUnits="userSpaceOnUse" color-interpolation-filters="sRGB">
<feFlood flood-opacity="0" result="BackgroundImageFix"/>
<feBlend mode="normal" in="SourceGraphic" in2="BackgroundImageFix" result="shape"/>
<feColorMatrix in="SourceAlpha" type="matrix" values="0 0 0 0 0 0 0 0 0 0 0 0 0 0 0 0 0 0 127 0" result="hardAlpha"/>
<feOffset/>
<feGaussianBlur stdDeviation="10"/>
<feComposite in2="hardAlpha" operator="arithmetic" k2="-1" k3="1"/>
<feColorMatrix type="matrix" values="0 0 0 0 1 0 0 0 0 1 0 0 0 0 1 0 0 0 1 0"/>
<feBlend mode="normal" in2="shape" result="effect1_innerShadow_304_854"/>
</filter>
</defs>
</svg>
