<svg width="203" height="55" viewBox="0 0 203 55" fill="none" xmlns="http://www.w3.org/2000/svg">
<path d="M27.5 0C12.31 0 0 12.31 0 27.5C0 42.69 12.31 55 27.5 55C42.69 55 55 42.69 55 27.5C55 12.31 42.69 0 27.5 0Z" fill="#FBDC51"/>
<path d="M91 15.0114C91 15.5547 90.8617 16.098 90.6004 16.6724L84.6834 29.0441C84.0686 30.317 83.1004 31 81.8863 31C80.6721 31 79.6885 30.317 79.0891 29.0441L76 22.3382L72.9109 29.0441C72.2961 30.317 71.3279 31 70.1137 31C68.8996 31 67.916 30.317 67.3166 29.0441L61.3996 16.6724C61.1537 16.098 61 15.5547 61 15.0114C61 13.3505 62.3217 12 63.9816 12C65.1342 12 66.1332 12.6209 66.6404 13.6299L70.2674 21.174L73.0338 14.3905C73.6793 12.7917 74.6783 12 76.0154 12C77.3371 12 78.3514 12.7917 78.9969 14.3905L81.7633 21.174L85.3904 13.6299C85.8975 12.6209 86.8965 12 88.0492 12C89.6629 12 91 13.335 91 15.0114Z" fill="white"/>
<path d="M110 20.5997V20.6773C110 22.4469 108.646 23.6887 106.805 23.6887H98.2688C98.9079 25.0703 100.232 25.7533 102.21 25.7533C103.199 25.7533 104.385 25.536 105.298 25.1324C105.724 24.9461 106.044 24.8374 106.394 24.8374C107.748 24.8374 108.813 25.893 108.813 27.2745C108.813 28.2835 108.357 29.0441 107.292 29.665C105.77 30.5343 103.914 31 101.997 31C96.2451 31 92 26.9796 92 21.5C92 16.098 96.0169 12 101.342 12C106.303 12 110 15.6634 110 20.5997ZM98.0558 19.6217H104.203C104.127 18.0694 102.925 16.9052 101.251 16.9052C99.6991 16.8897 98.5275 17.9453 98.0558 19.6217Z" fill="white"/>
<path d="M114 27.8562V6.14381C114 4.33186 115.254 3 117 3C118.701 3 120 4.33186 120 6.14381V27.8562C120 29.6681 118.716 31 117 31C115.299 31 114 29.6681 114 27.8562Z" fill="white"/>
<path d="M124 27.8562V6.14381C124 4.33186 125.254 3 127 3C128.701 3 130 4.33186 130 6.14381V27.8562C130 29.6681 128.716 31 127 31C125.284 31 124 29.6681 124 27.8562Z" fill="white"/>
<path d="M163 15.0114C163 15.5547 162.862 16.098 162.6 16.6724L156.683 29.0441C156.069 30.317 155.1 31 153.886 31C152.672 31 151.689 30.317 151.089 29.0441L148 22.3382L144.911 29.0441C144.296 30.317 143.328 31 142.114 31C140.9 31 139.916 30.317 139.317 29.0441L133.4 16.6724C133.154 16.098 133 15.5547 133 15.0114C133 13.3505 134.322 12 135.982 12C137.134 12 138.133 12.6209 138.64 13.6299L142.267 21.174L145.034 14.3905C145.679 12.7917 146.678 12 148.015 12C149.337 12 150.351 12.7917 150.997 14.3905L153.763 21.174L157.39 13.6299C157.898 12.6209 158.897 12 160.049 12C161.663 12 163 13.335 163 15.0114Z" fill="white"/>
<path d="M181 20.0587V27.885C181 29.6517 179.738 30.969 178.015 30.969C176.754 30.969 175.708 30.2871 175.246 29.1868C173.985 30.3491 172.231 31 170.215 31C166.508 31 164 28.7529 164 25.4209C164 22.0114 166.631 19.9967 171.046 19.9967H174.815V19.7023C174.815 18.2145 173.815 17.3776 172.046 17.3776C171.046 17.3776 170.138 17.6721 169.2 18.2765C168.477 18.7414 168.092 18.8964 167.554 18.8964C166.077 18.8964 164.969 17.7806 164.969 16.3548C164.969 15.456 165.431 14.6191 166.292 13.9217C167.8 12.6974 170.108 12 172.723 12C178.046 12.0155 181 14.9135 181 20.0587ZM174.815 23.9331V23.7936H171.908C170.862 23.7936 170.262 24.3051 170.262 25.1729C170.262 26.0718 170.938 26.5832 172.092 26.5832C173.708 26.5677 174.815 25.5139 174.815 23.9331Z" fill="white"/>
<path d="M203 15.0663C203 15.5088 202.89 15.983 202.59 16.5836L194.924 31.9149C192.748 36.2298 190.429 38 186.896 38C185.871 38 184.987 37.8103 184.356 37.4468C183.473 36.9726 183 36.0401 183 35.0444C183 33.4638 184.246 32.31 185.839 32.31H185.95C187.385 32.31 188.315 31.8675 188.978 30.4292L189.498 29.2912L183.647 16.5836C183.347 15.9988 183.237 15.5088 183.237 15.0663C183.237 13.4067 184.64 12 186.297 12C187.511 12 188.584 12.6638 189.057 13.7702L193.079 22.8584L197.211 13.7702C197.685 12.6954 198.757 12 199.972 12C201.596 12 203 13.4067 203 15.0663Z" fill="white"/>
<path d="M69 42.6534V46.3472C69 46.7293 68.741 47 68.4101 47C68.0791 47 67.8201 46.7134 67.8201 46.3472V44.962H66.1799V46.3472C66.1799 46.7293 65.9209 47 65.5899 47C65.2446 47 65 46.7134 65 46.3472V42.6534C65 42.2713 65.259 42.0006 65.5899 42.0006C65.9209 42.0006 66.1799 42.2872 66.1799 42.6534V43.8635H67.8201V42.6534C67.8201 42.2713 68.0647 42.0006 68.4101 42.0006C68.741 41.9847 69 42.2713 69 42.6534Z" fill="white"/>
<path d="M75 44.0478V46.3492C75 46.7302 74.75 47 74.4118 47C74.1176 47 73.8824 46.7937 73.8235 46.4921C73.5 46.8254 73.0588 47 72.5294 47C71.6177 47 71 46.4127 71 45.5715C71 44.7144 71.6324 44.1747 72.6765 44.1747H73.7941V43.9684C73.7941 43.4288 73.5 43.1272 72.9559 43.1272C72.6471 43.1272 72.3676 43.2383 72.1029 43.4922C71.9559 43.6033 71.8676 43.651 71.75 43.651C71.4559 43.651 71.2353 43.4129 71.2353 43.1113C71.2353 42.9208 71.3235 42.7462 71.4853 42.5875C71.8676 42.2066 72.4412 42.0002 73.0882 42.0002C74.3088 41.9844 75 42.7304 75 44.0478ZM73.7941 45.0953V45.0318H72.8382C72.4412 45.0318 72.2206 45.1906 72.2206 45.5239C72.2206 45.8413 72.4559 46.0477 72.8529 46.0477C73.3971 46.0477 73.7941 45.635 73.7941 45.0953Z" fill="white"/>
<path d="M81 42.9958V46.3862C81 46.737 80.7465 47 80.4225 47C80.0986 47 79.8451 46.737 79.8451 46.3862V44.4572L78.0986 46.7077C77.9296 46.9123 77.7746 47 77.5775 47C77.2535 47 77 46.737 77 46.3862V42.9958C77 42.6451 77.2535 42.3967 77.5775 42.3967C77.9014 42.3967 78.1549 42.6597 78.1549 42.9958V44.9541L79.9014 42.6743C80.0704 42.4697 80.2253 42.3821 80.4225 42.3821C80.7465 42.3821 81 42.6451 81 42.9958ZM77.5634 40.4969C77.5634 40.2192 77.7606 40 78.0141 40C78.2394 40 78.3944 40.1169 78.4648 40.3653C78.5352 40.6722 78.7465 40.8768 79.0423 40.8768C79.3239 40.8768 79.5352 40.6868 79.6056 40.3653C79.6761 40.1315 79.831 40 80.0422 40C80.2958 40 80.493 40.2192 80.493 40.4969C80.493 41.1983 79.831 41.7829 79.0282 41.7829C78.2394 41.7975 77.5634 41.1837 77.5634 40.4969Z" fill="white"/>
<path d="M88 46.162V47.362C88 47.7266 87.7089 48 87.3369 48C86.965 48 86.6739 47.7266 86.6739 47.362V46.5873H83.3261V47.362C83.3261 47.7266 83.035 48 82.6631 48C82.2749 48 82 47.7266 82 47.362V46.162C82 45.7975 82.2911 45.5392 82.6792 45.5392H82.7278C83.31 44.9165 83.5364 44.081 83.5364 42.6228V42.6076C83.5364 42.2582 83.8275 42 84.1995 42H86.4636C86.8518 42 87.1267 42.2734 87.1267 42.638V45.5241H87.3208C87.7251 45.5241 88 45.7975 88 46.162ZM84.1348 45.5241H85.8167V43.0481H84.8625C84.8464 44.2177 84.6199 45.0076 84.1348 45.5241Z" fill="white"/>
<path d="M94 46.3333V42.6508C94 42.2857 94.2663 42 94.6065 42C94.8136 42 94.9911 42.1111 95.1095 42.2698L96.5 44.2222L97.8905 42.2698C98.0089 42.1111 98.1864 42 98.3935 42C98.7485 42 99 42.2857 99 42.6508V46.3333C99 46.7143 98.7337 47 98.3935 47C98.0532 47 97.787 46.7143 97.787 46.3333V44.4444L96.8698 45.6825C96.7811 45.7937 96.6479 45.8413 96.5 45.8413C96.3521 45.8413 96.2189 45.7778 96.1302 45.6825L95.213 44.4444V46.3333C95.213 46.7143 94.9467 47 94.6065 47C94.2663 47 94 46.7143 94 46.3333Z" fill="white"/>
<path d="M111 42.5383C111 42.623 110.984 42.7077 110.921 42.8065L108.83 46.6593C108.327 47.5907 107.745 48 106.881 48C106.676 48 106.472 47.9718 106.33 47.9012C106.126 47.8307 106 47.6472 106 47.4496C106 47.1673 106.252 46.9557 106.582 46.9557C106.629 46.9557 106.66 46.9698 106.692 46.9698C107.101 46.9698 107.384 46.8145 107.588 46.4335L107.761 46.0948L106.126 42.8488C106.063 42.75 106.047 42.6653 106.047 42.5666C106.047 42.2702 106.33 42.002 106.676 42.002C106.928 42.002 107.148 42.1291 107.242 42.3266L108.5 44.8528L109.789 42.3266C109.884 42.1291 110.104 42.002 110.371 42.002C110.717 41.9738 111 42.242 111 42.5383Z" fill="white"/>
<path d="M113 46.3344V42.6656C113 42.276 113.264 42 113.601 42H116.399C116.751 42 117 42.2922 117 42.6656V46.3344C117 46.724 116.736 47 116.399 47C116.062 47 115.799 46.7078 115.799 46.3344V43.1201H114.201V46.3344C114.201 46.724 113.938 47 113.601 47C113.249 47 113 46.724 113 46.3344Z" fill="white"/>
<path d="M122 44.0478V46.3492C122 46.7302 121.75 47 121.412 47C121.118 47 120.882 46.7937 120.824 46.4921C120.5 46.8254 120.059 47 119.529 47C118.618 47 118 46.4127 118 45.5715C118 44.7144 118.632 44.1747 119.676 44.1747H120.794V43.9684C120.794 43.4288 120.5 43.1272 119.956 43.1272C119.647 43.1272 119.368 43.2383 119.103 43.4922C118.956 43.6033 118.868 43.651 118.75 43.651C118.456 43.651 118.235 43.4129 118.235 43.1113C118.235 42.9208 118.324 42.7462 118.485 42.5875C118.868 42.2066 119.441 42.0002 120.088 42.0002C121.294 41.9844 122 42.7304 122 44.0478ZM120.779 45.0953V45.0318H119.824C119.426 45.0318 119.206 45.1906 119.206 45.5239C119.206 45.8413 119.441 46.0477 119.838 46.0477C120.382 46.0477 120.779 45.635 120.779 45.0953Z" fill="white"/>
<path d="M125.184 42.6493V46.3197C125.184 46.6994 124.924 46.9842 124.592 46.9842C124.245 46.9842 124 46.6994 124 46.3197V42.6493C124 42.2696 124.26 42.0006 124.592 42.0006C124.939 41.9848 125.184 42.2696 125.184 42.6493ZM128 46.3988C128 46.731 127.769 47 127.451 47C127.278 47 127.134 46.9367 127.032 46.7943L125.545 44.7851C125.415 44.6111 125.372 44.4687 125.372 44.3263C125.372 44.1681 125.43 44.0257 125.588 43.8517L126.975 42.2221C127.076 42.0956 127.22 42.0165 127.379 42.0323C127.682 42.0481 127.928 42.2854 127.928 42.6176C127.928 42.7759 127.87 42.9341 127.755 43.0606L126.643 44.3421L127.87 46.0191C127.957 46.114 128 46.2406 128 46.3988Z" fill="white"/>
<path d="M134 42.5383C134 42.623 133.984 42.7077 133.921 42.8065L131.83 46.6593C131.327 47.5907 130.745 48 129.881 48C129.676 48 129.472 47.9718 129.33 47.9012C129.126 47.8307 129 47.6472 129 47.4496C129 47.1673 129.252 46.9557 129.582 46.9557C129.629 46.9557 129.66 46.9698 129.692 46.9698C130.101 46.9698 130.384 46.8145 130.588 46.4335L130.761 46.0948L129.126 42.8488C129.063 42.75 129.047 42.6653 129.047 42.5666C129.047 42.2702 129.33 42.002 129.676 42.002C129.928 42.002 130.148 42.1291 130.242 42.3266L131.5 44.8528L132.789 42.3266C132.884 42.1291 133.104 42.002 133.371 42.002C133.717 41.9738 134 42.242 134 42.5383Z" fill="white"/>
<path d="M139 44.2311V44.2628C139 44.6741 138.699 44.9273 138.247 44.9273H135.371C135.538 45.5285 136.04 45.8766 136.793 45.8766C137.161 45.8766 137.545 45.7817 137.846 45.5918C137.947 45.5285 138.047 45.5127 138.147 45.5127C138.465 45.5127 138.716 45.7342 138.716 46.0349C138.716 46.2405 138.615 46.3988 138.365 46.557C137.913 46.8418 137.361 47 136.759 47C135.171 47 134 45.9241 134 44.5001C134 43.0761 135.137 42.0002 136.625 42.0002C137.98 41.9844 139 42.9337 139 44.2311ZM135.371 44.0096H137.662C137.645 43.44 137.211 43.0445 136.575 43.0445C135.973 43.0445 135.522 43.4242 135.371 44.0096Z" fill="white"/>
<path d="M140 46.3333V42.6508C140 42.2857 140.266 42 140.607 42C140.814 42 140.991 42.1111 141.109 42.2698L142.5 44.2222L143.891 42.2698C144.009 42.1111 144.186 42 144.393 42C144.749 42 145 42.2857 145 42.6508V46.3333C145 46.7143 144.734 47 144.393 47C144.053 47 143.787 46.7143 143.787 46.3333V44.4444L142.87 45.6825C142.781 45.7937 142.648 45.8413 142.5 45.8413C142.352 45.8413 142.219 45.7778 142.13 45.6825L141.213 44.4444V46.3333C141.213 46.7143 140.947 47 140.607 47C140.266 47 140 46.7143 140 46.3333Z" fill="white"/>
<path d="M153 46.3344V42.6656C153 42.276 153.264 42 153.601 42H156.399C156.751 42 157 42.2922 157 42.6656V46.3344C157 46.724 156.736 47 156.399 47C156.062 47 155.799 46.7078 155.799 46.3344V43.1201H154.201V46.3344C154.201 46.724 153.938 47 153.601 47C153.264 47 153 46.724 153 46.3344Z" fill="white"/>
<path d="M164 44.2254C164 45.507 163.025 46.4648 161.704 46.4648C161.107 46.4648 160.604 46.2817 160.289 45.9437V47.4225C160.289 47.7606 160.006 48 159.645 48C159.267 48 159 47.7465 159 47.4225V42.5775C159 42.2535 159.283 42 159.645 42C159.991 42 160.242 42.2253 160.274 42.5493C160.604 42.2113 161.107 42.0141 161.72 42.0141C163.041 42 164 42.9296 164 44.2254ZM162.695 44.2254C162.695 43.5352 162.192 43.0422 161.469 43.0422C160.745 43.0422 160.274 43.5211 160.274 44.2113C160.274 44.9014 160.761 45.3944 161.469 45.3944C162.176 45.3944 162.695 44.9155 162.695 44.2254Z" fill="white"/>
<path d="M169 42.6645V46.3354C169 46.7152 168.746 47 168.423 47C168.099 47 167.845 46.7152 167.845 46.3354V44.2468L166.099 46.6835C165.93 46.9051 165.775 47 165.577 47C165.254 47 165 46.7152 165 46.3354V42.6645C165 42.2848 165.254 42.0158 165.577 42.0158C165.901 42.0158 166.155 42.3006 166.155 42.6645V44.7848L167.901 42.3165C168.07 42.0949 168.225 42 168.423 42C168.746 42 169 42.2848 169 42.6645Z" fill="white"/>
<path d="M175 45.4934C175 46.3874 174.336 47 173.421 47H171.62C171.266 47 171 46.702 171 46.3046V42.6954C171 42.298 171.266 42 171.62 42H173.111C174.07 42 174.69 42.5629 174.69 43.3907C174.69 43.7715 174.557 44.0861 174.336 44.3344C174.764 44.5662 175 44.9636 175 45.4934ZM172.166 43.9371H173.081C173.391 43.9371 173.568 43.7881 173.568 43.5066C173.568 43.2417 173.406 43.0927 173.081 43.0927H172.166V43.9371ZM173.878 45.3775C173.878 45.0795 173.657 44.8973 173.317 44.8973H172.166V45.8907H173.317C173.672 45.9073 173.878 45.6921 173.878 45.3775Z" fill="white"/>
<path d="M181 44.2311V44.2628C181 44.6741 180.699 44.9273 180.247 44.9273H177.371C177.538 45.5285 178.04 45.8766 178.793 45.8766C179.161 45.8766 179.545 45.7817 179.846 45.5918C179.947 45.5285 180.047 45.5127 180.147 45.5127C180.465 45.5127 180.716 45.7342 180.716 46.0349C180.716 46.2405 180.615 46.3988 180.365 46.557C179.913 46.8418 179.361 47 178.759 47C177.171 47 176 45.9241 176 44.5001C176 43.0761 177.137 42.0002 178.625 42.0002C179.98 41.9844 181 42.9337 181 44.2311ZM177.371 44.0096H179.662C179.645 43.44 179.211 43.0445 178.575 43.0445C177.973 43.0445 177.522 43.4242 177.371 44.0096Z" fill="white"/>
<path d="M186 45.5556C186 46.4286 185.172 47 183.922 47C183.266 47 182.672 46.8095 182.297 46.4921C182.109 46.3492 182.016 46.1905 182.016 46.0159C182.016 45.6984 182.25 45.4603 182.562 45.4603C182.672 45.4603 182.766 45.4921 182.891 45.5714C183.141 45.7778 183.5 45.8889 183.906 45.8889C184.438 45.8889 184.719 45.6984 184.719 45.381C184.719 45.0794 184.469 44.9206 184.031 44.9206H183.578C183.297 44.9206 183.094 44.7143 183.094 44.4286C183.094 44.1429 183.297 43.9524 183.578 43.9524H183.984C184.328 43.9524 184.531 43.7937 184.531 43.5397C184.531 43.254 184.297 43.127 183.828 43.127C183.453 43.127 183.156 43.2064 182.891 43.381C182.766 43.4603 182.672 43.5079 182.547 43.5079C182.234 43.5079 182 43.254 182 42.9524C182 42.7619 182.094 42.6191 182.297 42.4603C182.656 42.1746 183.219 42 183.844 42C185.031 42 185.781 42.5397 185.781 43.3968C185.781 43.8095 185.609 44.1587 185.297 44.4286C185.75 44.6667 186 45.0952 186 45.5556Z" fill="white"/>
<path d="M192 44.3825V44.4124C192 44.8013 191.699 45.0406 191.247 45.0406H188.371C188.538 45.609 189.04 45.938 189.793 45.938C190.161 45.938 190.545 45.8483 190.846 45.6688C190.946 45.609 191.047 45.594 191.147 45.594C191.465 45.594 191.716 45.8034 191.716 46.0876C191.716 46.2821 191.615 46.4316 191.365 46.5812C190.913 46.8504 190.361 47 189.759 47C188.171 47 187 45.9829 187 44.6368C187 43.2906 188.137 42.2735 189.625 42.2735C190.98 42.2585 192 43.156 192 44.3825ZM187.585 40.7179C187.585 40.3141 187.97 40 188.405 40C188.856 40 189.224 40.3141 189.224 40.7179C189.224 41.1068 188.839 41.4209 188.405 41.4209C187.97 41.4209 187.585 41.0919 187.585 40.7179ZM188.371 44.1731H190.662C190.645 43.6346 190.211 43.2607 189.575 43.2607C188.973 43.2607 188.522 43.6197 188.371 44.1731ZM190.01 40.7179C190.01 40.3141 190.378 40 190.829 40C191.298 40 191.649 40.3141 191.649 40.7179C191.649 41.1068 191.281 41.4209 190.829 41.4209C190.411 41.4209 190.01 41.0919 190.01 40.7179Z" fill="white"/>
<path d="M93 44.3825V44.4124C93 44.8013 92.699 45.0406 92.2475 45.0406H89.3712C89.5385 45.609 90.0401 45.938 90.7926 45.938C91.1605 45.938 91.5451 45.8483 91.8462 45.6688C91.9465 45.609 92.0468 45.594 92.1472 45.594C92.4649 45.594 92.7157 45.8034 92.7157 46.0876C92.7157 46.2821 92.6154 46.4316 92.3646 46.5812C91.913 46.8504 91.3612 47 90.7592 47C89.1706 47 88 45.9829 88 44.6368C88 43.2906 89.1371 42.2735 90.6254 42.2735C91.9799 42.2585 93 43.156 93 44.3825ZM88.5686 40.7179C88.5686 40.3141 88.9532 40 89.388 40C89.8395 40 90.2074 40.3141 90.2074 40.7179C90.2074 41.1068 89.8227 41.4209 89.388 41.4209C88.9699 41.4209 88.5686 41.0919 88.5686 40.7179ZM89.3545 44.1731H91.6455C91.6288 43.6346 91.194 43.2607 90.5585 43.2607C89.9565 43.2607 89.5217 43.6197 89.3545 44.1731ZM91.01 40.7179C91.01 40.3141 91.3779 40 91.8294 40C92.2977 40 92.6488 40.3141 92.6488 40.7179C92.6488 41.1068 92.2809 41.4209 91.8294 41.4209C91.3947 41.4209 91.01 41.0919 91.01 40.7179Z" fill="white"/>
<path d="M193 46.3333V42.6508C193 42.2857 193.266 42 193.607 42C193.814 42 193.991 42.1111 194.109 42.2698L195.5 44.2222L196.891 42.2698C197.009 42.1111 197.186 42 197.393 42C197.749 42 198 42.2857 198 42.6508V46.3333C198 46.7143 197.734 47 197.393 47C197.053 47 196.787 46.7143 196.787 46.3333V44.4444L195.87 45.6825C195.781 45.7937 195.648 45.8413 195.5 45.8413C195.352 45.8413 195.219 45.7778 195.13 45.6825L194.213 44.4444V46.3333C194.213 46.7143 193.947 47 193.607 47C193.266 47 193 46.7143 193 46.3333Z" fill="white"/>
<path d="M103.5 49C103.225 49 103 48.8659 103 48.702V40.298C103 40.1341 103.225 40 103.5 40C103.775 40 104 40.1341 104 40.298V48.702C104 48.8659 103.775 49 103.5 49Z" fill="white"/>
<path d="M149.5 49C149.225 49 149 48.8659 149 48.702V40.298C149 40.1341 149.225 40 149.5 40C149.775 40 150 40.1341 150 40.298V48.702C150 48.8659 149.775 49 149.5 49Z" fill="white"/>
<path d="M21.0327 39.2112C21.2931 39.4583 21.5994 39.6436 21.875 39.8134C23.2228 40.6319 25.0452 41.6203 27.0821 42.0836C27.2047 42.1145 27.4803 42.1608 27.9092 42.2071C27.8938 42.2689 27.8479 42.377 27.756 42.5777C27.2812 43.5815 26.4083 44.0294 24.984 43.9985C23.4372 43.9676 21.8597 43.5198 20.2976 42.6241C16.8517 40.6782 14.5238 37.6823 13.4058 33.7134C12.9004 31.9375 12.8698 30.0998 13.2986 28.0613C13.7428 25.9301 14.5545 24.2005 15.7797 22.7489C17.2959 20.9575 19.2255 20.0309 21.4922 20H21.7678C21.8597 20 21.9516 20 22.0282 20C22.1507 20 22.2732 20 22.3958 20C21.339 21.081 21.2318 22.2701 22.0588 23.6291C23.0237 25.2043 24.5245 26.0228 25.9641 26.7486C28.1848 27.8451 30.5433 28.4782 32.3505 28.9106C33.1928 29.1114 33.8667 29.4203 34.418 29.8681C34.8009 30.177 35 30.5476 35 30.9182C35 31.2734 34.7856 31.6132 34.418 31.8912C33.5757 32.5243 32.5802 32.6479 31.1712 32.2927C29.165 31.783 27.0975 30.9182 24.8615 29.621C24.8308 29.6056 24.8002 29.5901 24.7696 29.5593C24.6164 29.4512 24.2029 29.1577 23.8047 29.5747C23.6056 29.8063 23.4372 30.1924 23.8047 30.7638C23.9885 31.0418 24.2336 31.2117 24.4326 31.3198C27.0209 32.7405 29.3181 33.6208 31.6307 34.0841C31.9829 34.1613 32.3352 34.1613 32.6721 34.1613H32.764C32.8865 34.1613 32.9172 34.1922 32.9172 34.1922C32.9172 34.1922 32.9325 34.223 32.9325 34.3003C32.9172 35.2732 32.6721 35.9681 32.2127 36.3851C31.7992 36.7403 31.2019 36.8793 30.4208 36.7866C28.3839 36.555 26.6686 35.6438 24.6317 34.4856C24.2948 34.2848 23.9579 34.0686 23.621 33.8524C23.4065 33.7134 23.1921 33.5744 22.9624 33.4355L22.9165 33.4046C22.7327 33.281 22.2273 32.9722 21.8291 33.4663C21.5075 33.8679 21.5534 34.362 21.9669 34.7327C22.5642 35.2732 23.2534 35.6593 23.9273 36.0453L24.2489 36.2306C26.1173 37.2962 27.6488 37.9294 29.1803 38.3C29.5938 38.3927 30.0226 38.4236 30.4361 38.4699C30.574 38.4853 30.7118 38.4853 30.8496 38.5008C30.9262 38.5008 30.9568 38.5317 30.9722 38.5162C30.9722 38.5317 30.9722 38.5934 30.9415 38.7015C30.6199 39.8289 29.7469 40.4775 28.583 40.5084C26.7758 40.5547 25.229 39.7825 23.5291 38.856C23.1921 38.6706 22.8399 38.4545 22.5489 38.2537L22.503 38.2228C22.3192 38.1147 22.1354 37.9912 21.9516 37.8831C21.921 37.8676 21.8904 37.8522 21.8444 37.8213C21.7066 37.7132 21.4922 37.5588 21.2318 37.6051C21.0787 37.636 20.9255 37.7441 20.8336 37.8985C20.5886 38.3155 20.6498 38.8714 21.0327 39.2112Z" fill="#353841"/>
<path d="M34.8521 42.1917C33.3578 43.0803 31.6171 43.6726 29.5066 44C29.9379 43.5479 30.246 42.9556 30.4309 42.2073C30.4925 41.9579 30.5849 41.8332 30.816 41.7553C32.2641 41.2565 33.1422 40.1809 33.5581 38.3726C33.6351 38.0141 33.7584 37.7491 34.051 37.5152C35.2064 36.6423 35.4221 35.3329 35.4683 34.0702C35.4837 33.5714 35.607 33.3532 36.0075 33.1193C36.978 32.527 37.5172 31.654 37.548 30.672C37.5788 29.612 36.978 28.5831 35.8996 27.8505C35.1602 27.3517 34.3129 27.1022 33.5273 26.8996C31.0933 26.3072 28.5053 25.5434 26.1483 24.0937C25.3164 23.5793 24.7157 23.0181 24.2997 22.379C23.9762 21.8646 23.9146 21.4749 24.1149 21.0852C24.2843 20.7578 24.5616 20.6331 25.1932 20.6019C25.2548 20.6019 25.3164 20.6019 25.3781 20.6019C26.6259 20.6019 27.7812 21.1319 28.9058 21.6307C29.1215 21.7243 29.3371 21.849 29.5528 21.9581C29.7685 22.0672 30.0304 22.2075 30.2922 22.3166C30.6311 22.4725 30.893 22.4725 31.0933 22.3322C31.309 22.1919 31.4014 21.9425 31.386 21.5528C31.3706 20.9916 31.1087 20.5396 30.8468 20.0875C30.8006 20.0096 30.7698 19.9472 30.7236 19.8693C30.5079 19.4951 30.3076 19.1054 30.092 18.7313L30.0304 18.6222C29.3063 17.344 28.5669 16.0345 28.0123 14.6472C27.2267 12.683 26.934 10.8436 27.1496 9.01978C27.2729 7.97536 28.1818 7.118 29.2755 7.00888C30.1844 6.91535 31.1241 7.57006 31.4476 8.52095C32.0792 10.3916 33.0805 11.9971 33.974 13.3066C34.6056 14.2263 35.2372 15.146 35.8688 16.0657L35.8996 16.0969C36.5312 17.001 37.1629 17.9207 37.779 18.8248C39.6739 21.6152 40.8754 24.0781 41.5533 26.5878C41.8768 27.7414 41.9538 28.9261 42 30.5784C41.7073 35.5667 39.2271 39.5573 34.8521 42.1917Z" fill="#353841"/>
</svg>
